<svg width="140" height="140" viewBox="0 0 140 140" fill="none" xmlns="http://www.w3.org/2000/svg">
<rect width="140" height="140" rx="70" fill="url(#paint0_linear_4010_7420)"/>
<path d="M70 15C39.64 15 15 39.64 15 70C15 100.36 39.64 125 70 125C100.36 125 125 100.36 125 70C125 39.64 100.36 15 70 15ZM44.425 105.75C51.63 100.58 60.43 97.5 70 97.5C79.57 97.5 88.37 100.58 95.575 105.75C88.37 110.92 79.57 114 70 114C60.43 114 51.63 110.92 44.425 105.75ZM103.77 98.16C94.475 90.9 82.76 86.5 70 86.5C57.24 86.5 45.525 90.9 36.23 98.16C29.85 90.515 26 80.725 26 70C26 45.69 45.69 26 70 26C94.31 26 114 45.69 114 70C114 80.725 110.15 90.515 103.77 98.16Z" fill="black"/>
<path d="M70 37C59.385 37 50.75 45.635 50.75 56.25C50.75 66.865 59.385 75.5 70 75.5C80.615 75.5 89.25 66.865 89.25 56.25C89.25 45.635 80.615 37 70 37ZM70 64.5C65.435 64.5 61.75 60.815 61.75 56.25C61.75 51.685 65.435 48 70 48C74.565 48 78.25 51.685 78.25 56.25C78.25 60.815 74.565 64.5 70 64.5Z" fill="black"/>
<defs>
<linearGradient id="paint0_linear_4010_7420" x1="140" y1="1.66893e-05" x2="1.66893e-05" y2="140" gradientUnits="userSpaceOnUse">
<stop stop-color="#AE7AFF"/>
<stop offset="1" stop-color="#6686FF"/>
</linearGradient>
</defs>
</svg>
